<svg width="379" height="401" viewBox="0 0 379 401" fill="none" xmlns="http://www.w3.org/2000/svg">
<path d="M367.369 345.745L370.614 357.429C367.764 354.778 363.917 353.321 363.917 353.321C362.418 352.874 361.036 352.944 359.73 353.381C356.574 354.439 353.846 357.664 350.921 361.054C348.345 364.047 345.614 367.168 342.305 369.046C333.69 373.93 328.535 365.178 328.535 365.178L326.904 359.306C324.399 350.288 327.255 340.502 334.074 334.758C334.763 334.172 335.513 333.636 336.309 333.137C336.567 333.192 336.831 333.18 337.089 333.098L345.575 330.316L345.591 330.311C345.876 330.215 346.124 330.037 346.326 329.798C346.33 329.797 346.33 329.797 346.33 329.797C347.222 329.721 348.093 329.714 348.944 329.775C353.232 330.065 357.214 331.805 360.433 334.597C363.655 337.388 366.117 341.236 367.369 345.745Z" fill="white" stroke="black" stroke-width="2.2" stroke-miterlimit="10"/>
<path d="M345.781 327.736C346.034 328.676 345.862 329.616 345.396 330.162C345.396 330.162 345.396 330.162 345.392 330.163C345.23 330.36 345.024 330.505 344.794 330.581L344.782 330.585L337.894 332.842C337.683 332.908 337.473 332.916 337.264 332.877C336.564 332.742 335.906 332.037 335.641 331.054C335.498 330.523 335.262 329.672 335.096 329.073L334.906 328.392C334.789 327.952 334.761 327.511 334.812 327.086C334.858 326.662 334.981 326.247 335.156 325.865C335.43 325.266 336.7 324.589 337.223 324.418L341.969 322.87C342.528 322.688 343.155 322.796 343.717 323.186C344.335 323.619 344.834 324.249 345.059 325.075C345.046 325.075 345.559 326.905 345.781 327.736Z" fill="white" stroke="black" stroke-width="2.2" stroke-miterlimit="10"/>
<path d="M370.612 357.429L374.487 371.382C376.802 379.714 372.522 388.53 364.926 391.076L351.963 395.42C344.371 397.964 336.336 393.275 334.022 384.943L328.533 365.183C328.533 365.183 333.688 373.934 342.303 369.05C345.613 367.172 348.344 364.051 350.92 361.058L350.924 361.057C355.053 356.262 358.796 351.801 363.919 353.324C363.915 353.325 367.762 354.783 370.612 357.429Z" fill="url(#paint0_linear)" stroke="black" stroke-width="2.2" stroke-miterlimit="10"/>
<path d="M355.14 345.91L337.129 351.946C333.699 353.095 330.618 350.627 331.495 347.434C332.36 344.274 334.423 341.287 337.439 339.081C338.906 338.011 340.747 337.104 342.669 336.46C344.592 335.816 346.58 335.439 348.341 335.427C350.153 335.413 351.868 335.716 353.42 336.277C354.973 336.839 356.361 337.664 357.521 338.712C359.873 340.828 358.566 344.762 355.14 345.91Z" fill="white" stroke="black" stroke-width="2.2" stroke-miterlimit="10"/>
<path d="M144.97 76.7317C143.015 79.3004 140.511 81.4925 137.526 83.1017C134.532 84.7158 131.356 85.5797 128.192 85.7658C128.754 85.0943 129.444 84.5388 130.215 84.1241L142.505 77.4998C143.28 77.0804 144.114 76.8208 144.97 76.7317Z" fill="white" stroke="black" stroke-width="2.2" stroke-miterlimit="10"/>
<path d="M151.687 82.5042C151.781 84.5467 150.846 86.5518 149.146 87.5513L133.378 96.8223C131.135 98.1406 128.381 97.2313 127.067 94.8017C127.014 94.6946 126.957 94.5876 126.908 94.4803C126.553 93.7247 126.375 92.9162 126.337 92.0863C126.283 90.9035 126.516 89.6776 126.953 88.4872C127.202 87.8084 127.546 87.185 127.964 86.6379C128.527 85.8999 129.219 85.2904 129.992 84.8365L142.321 77.5862C143.099 77.1272 143.937 76.8446 144.797 76.7503C145.557 76.6705 146.328 76.7347 147.079 76.9541C148.836 77.461 150.332 78.5127 151.135 80.2387C151.189 80.3558 151.238 80.4681 151.283 80.5855C151.526 81.2068 151.657 81.8532 151.687 82.5042Z" fill="white" stroke="black" stroke-width="2.2" stroke-miterlimit="10"/>
<path d="M157.049 95.1495L135.342 107.207C132.123 108.992 128.143 107.648 126.452 104.198C125.284 101.822 125.51 99.0675 126.542 96.4425C127.35 94.3815 128.873 92.7316 130.734 91.7009L147.714 82.2711C149.722 81.1573 152.053 80.8353 154.261 81.4355C156.672 82.0931 158.727 83.4401 159.821 85.6714C161.503 89.1166 160.264 93.3597 157.049 95.1495Z" fill="white" stroke="black" stroke-width="2.2" stroke-miterlimit="10"/>
<path d="M255.972 332.555C248.992 336.552 239.276 331.272 234.267 320.765L197.544 251.708C182.769 223.92 169.245 195.354 157.018 166.114L134.182 111.474C132.624 107.753 133.974 103.359 137.246 101.486L150.837 93.7042C154.114 91.8309 158.166 93.1254 160.066 96.6543L187.913 148.425C202.816 176.132 216.474 204.621 228.83 233.794L259.541 306.295C264.551 316.798 262.952 328.557 255.972 332.555Z" fill="white" stroke="black" stroke-width="2.2" stroke-miterlimit="10"/>
<path d="M145.386 75.7748C144.485 75.8716 143.606 76.1583 142.79 76.623L129.856 83.963C129.044 84.4225 128.319 85.0389 127.727 85.7849C118.418 86.3537 109.192 81.0329 104.56 71.3995C102.312 66.7179 101.152 56.9902 100.597 46.4254L100.601 46.4201C100.786 46.1402 106.729 37.1665 106.971 33.637C107.098 31.7965 107.94 34.5022 109.986 37.2831C111.933 39.9229 114.968 42.6231 119.499 41.5452L119.179 32.387L123.45 35.5582L124.251 23.388C134.515 31.5763 144.851 40.8268 147.764 46.8852C152.402 56.5284 151.145 67.7997 145.386 75.7748Z" fill="white" stroke="black" stroke-width="2.2" stroke-miterlimit="10"/>
<path d="M124.287 24.1256L123.479 36.1513L119.211 33.0202L119.526 42.0691C114.995 43.1366 111.962 40.4702 110.017 37.8629C107.973 35.1162 107.133 32.4433 107.005 34.2618C106.761 37.7494 100.814 46.6195 100.629 46.8962L100.625 46.9013C99.6349 28.1695 100.578 6.77124 100.578 6.77124C100.578 6.77124 112.384 14.7405 124.287 24.1256Z" fill="url(#paint1_linear)" stroke="black" stroke-width="2.2" stroke-miterlimit="10"/>
<path d="M65.448 221.903L62.1324 237.44C60.4959 232.391 57.0212 227.971 57.0212 227.971C55.5946 226.386 53.9923 225.469 52.2561 225.022C48.0579 223.941 43.0494 225.616 37.7204 227.338C33.0218 228.862 28.072 230.419 23.2112 230.154C10.5609 229.46 9.96716 215.857 9.96716 215.857L11.6335 208.048C14.1929 196.054 23.2663 187.059 34.402 185.487C35.5308 185.321 36.6989 185.257 37.8957 185.267C38.1533 185.516 38.4598 185.692 38.8005 185.786L50.0482 188.761L50.0693 188.766C50.4481 188.864 50.8357 188.842 51.2062 188.718C51.2115 188.719 51.2115 188.719 51.2115 188.719C52.2637 189.276 53.2525 189.896 54.178 190.579C58.8486 193.998 62.3066 198.834 64.274 204.308C66.2467 209.785 66.7276 215.906 65.448 221.903Z" fill="white" stroke="black" stroke-width="2.2" stroke-miterlimit="10"/>
<path d="M51.8282 185.997C51.5517 187.241 50.7965 188.179 49.9432 188.459C49.9432 188.459 49.9432 188.459 49.9379 188.458C49.6379 188.563 49.3184 188.578 49.0132 188.5L48.9974 188.495L39.8674 186.078C39.5898 186 39.348 185.859 39.1343 185.664C38.4255 185.006 38.1027 183.736 38.3916 182.434C38.5471 181.732 38.7885 180.6 38.9585 179.804L39.1518 178.898C39.2815 178.316 39.5142 177.798 39.8253 177.354C40.1312 176.909 40.5178 176.528 40.9435 176.223C41.6119 175.744 43.4502 175.894 44.1434 176.079L50.4297 177.752C51.1703 177.949 51.8138 178.523 52.2159 179.369C52.6546 180.304 52.8423 181.375 52.603 182.47C52.5885 182.461 52.074 184.898 51.8282 185.997Z" fill="white" stroke="black" stroke-width="2.2" stroke-miterlimit="10"/>
<path d="M62.1377 237.44L58.1781 255.996C55.8133 267.078 45.7109 273.951 35.6098 271.35L18.3696 266.912C8.27385 264.313 1.99892 253.223 4.36364 242.141L9.97121 215.863C9.97121 215.863 10.565 229.466 23.2153 230.159C28.076 230.424 33.0258 228.867 37.7245 227.343L37.7297 227.345C45.2599 224.905 52.1531 222.564 57.0305 227.979C57.0253 227.977 60.4999 232.397 62.1377 237.44Z" fill="url(#paint2_linear)" stroke="black" stroke-width="2.2" stroke-miterlimit="10"/>
<path d="M51.5455 213.274L27.5924 207.107C23.0311 205.933 21.0255 200.923 23.9245 197.949C26.7898 195.003 30.9055 193.116 35.6298 192.798C37.9265 192.646 40.5479 192.95 43.1048 193.608C45.6616 194.266 48.1328 195.274 50.129 196.531C52.1847 197.821 53.9402 199.399 55.3587 201.153C56.7772 202.906 57.8521 204.839 58.5364 206.86C59.9291 210.945 56.1015 214.447 51.5455 213.274Z" fill="white" stroke="black" stroke-width="2.2" stroke-miterlimit="10"/>
<defs>
<linearGradient id="paint0_linear" x1="321.361" y1="375.075" x2="396.278" y2="385.891" gradientUnits="userSpaceOnUse">
<stop stop-color="#EDC41B"/>
<stop offset="0.3257" stop-color="#DB82E0"/>
<stop offset="0.8492" stop-color="#3EB1CC"/>
</linearGradient>
<linearGradient id="paint1_linear" x1="94.2517" y1="13.3523" x2="126.898" y2="47.4966" gradientUnits="userSpaceOnUse">
<stop stop-color="#EDC41B"/>
<stop offset="0.3257" stop-color="#DB82E0"/>
<stop offset="0.8492" stop-color="#3EB1CC"/>
</linearGradient>
<linearGradient id="paint2_linear" x1="2.2033" y1="232.606" x2="76.5775" y2="257.577" gradientUnits="userSpaceOnUse">
<stop stop-color="#EDC41B"/>
<stop offset="0.3257" stop-color="#DB82E0"/>
<stop offset="0.8492" stop-color="#3EB1CC"/>
</linearGradient>
</defs>
</svg>
